<mxfile host="app.diagrams.net" agent="Mozilla/5.0 (Windows NT 10.0; Win64; x64) AppleWebKit/537.36 (KHTML, like Gecko) Chrome/138.0.0.0 Safari/537.36" version="28.0.6">
  <diagram name="Page-1" id="8UqRjWSknt1-UfkKHRVM">
    <mxGraphModel dx="1042" dy="527" grid="1" gridSize="10" guides="1" tooltips="1" connect="1" arrows="1" fold="1" page="1" pageScale="1" pageWidth="827" pageHeight="1169" math="0" shadow="0">
      <root>
        <mxCell id="0" />
        <mxCell id="1" parent="0" />
        <mxCell id="9dE8ySC3UoFa6OLy-C59-1" value="" style="outlineConnect=0;fontColor=#232F3E;gradientColor=none;fillColor=#01A88D;strokeColor=none;dashed=0;verticalLabelPosition=bottom;verticalAlign=top;align=center;html=1;fontSize=12;fontStyle=0;aspect=fixed;shape=mxgraph.aws4.workspaces_workspaces_web;shadow=1;" vertex="1" parent="1">
          <mxGeometry x="112" y="124" width="78" height="74" as="geometry" />
        </mxCell>
        <mxCell id="9dE8ySC3UoFa6OLy-C59-3" value="User Browser (React App )" style="text;strokeColor=#0e8088;align=center;fillColor=#b0e3e6;html=1;verticalAlign=middle;whiteSpace=wrap;rounded=1;shadow=1;" vertex="1" parent="1">
          <mxGeometry x="96" y="204" width="110" height="40" as="geometry" />
        </mxCell>
        <mxCell id="9dE8ySC3UoFa6OLy-C59-4" value="React Frontend&lt;div&gt;&lt;br&gt;&lt;/div&gt;" style="verticalAlign=top;align=left;spacingTop=8;spacingLeft=2;spacingRight=12;shape=cube;size=10;direction=south;fontStyle=4;html=1;whiteSpace=wrap;shadow=1;" vertex="1" parent="1">
          <mxGeometry x="406" y="124" width="100" height="70" as="geometry" />
        </mxCell>
        <mxCell id="9dE8ySC3UoFa6OLy-C59-6" value="" style="endArrow=classic;html=1;rounded=0;entryX=0;entryY=0;entryDx=40;entryDy=100;entryPerimeter=0;shadow=1;" edge="1" parent="1" source="9dE8ySC3UoFa6OLy-C59-1" target="9dE8ySC3UoFa6OLy-C59-4">
          <mxGeometry width="50" height="50" relative="1" as="geometry">
            <mxPoint x="432" y="364" as="sourcePoint" />
            <mxPoint x="482" y="314" as="targetPoint" />
            <Array as="points" />
          </mxGeometry>
        </mxCell>
        <mxCell id="9dE8ySC3UoFa6OLy-C59-7" value="Uploads Audio / Video" style="text;strokeColor=none;align=center;fillColor=none;html=1;verticalAlign=middle;whiteSpace=wrap;rounded=0;shadow=1;" vertex="1" parent="1">
          <mxGeometry x="232" y="134" width="120" height="30" as="geometry" />
        </mxCell>
        <mxCell id="9dE8ySC3UoFa6OLy-C59-8" value="" style="points=[[0,0,0],[0.25,0,0],[0.5,0,0],[0.75,0,0],[1,0,0],[0,1,0],[0.25,1,0],[0.5,1,0],[0.75,1,0],[1,1,0],[0,0.25,0],[0,0.5,0],[0,0.75,0],[1,0.25,0],[1,0.5,0],[1,0.75,0]];outlineConnect=0;fontColor=#232F3E;fillColor=#ED7100;strokeColor=#ffffff;dashed=0;verticalLabelPosition=bottom;verticalAlign=top;align=center;html=1;fontSize=12;fontStyle=0;aspect=fixed;shape=mxgraph.aws4.resourceIcon;resIcon=mxgraph.aws4.ec2;shadow=1;" vertex="1" parent="1">
          <mxGeometry x="412" y="304" width="78" height="78" as="geometry" />
        </mxCell>
        <mxCell id="9dE8ySC3UoFa6OLy-C59-9" value="Flask Backend (Public ngrok URL )" style="text;strokeColor=#C73500;align=center;fillColor=#fa6800;html=1;verticalAlign=middle;whiteSpace=wrap;rounded=1;fontColor=#000000;glass=0;shadow=1;" vertex="1" parent="1">
          <mxGeometry x="396" y="394" width="110" height="40" as="geometry" />
        </mxCell>
        <mxCell id="9dE8ySC3UoFa6OLy-C59-10" value="" style="endArrow=classic;html=1;rounded=0;exitX=0;exitY=0;exitDx=70;exitDy=55;exitPerimeter=0;entryX=0.5;entryY=0;entryDx=0;entryDy=0;entryPerimeter=0;shadow=1;" edge="1" parent="1" source="9dE8ySC3UoFa6OLy-C59-4" target="9dE8ySC3UoFa6OLy-C59-8">
          <mxGeometry width="50" height="50" relative="1" as="geometry">
            <mxPoint x="432" y="364" as="sourcePoint" />
            <mxPoint x="482" y="314" as="targetPoint" />
          </mxGeometry>
        </mxCell>
        <mxCell id="9dE8ySC3UoFa6OLy-C59-11" value="POST / Upload" style="text;strokeColor=none;align=center;fillColor=none;html=1;verticalAlign=middle;whiteSpace=wrap;rounded=0;shadow=1;" vertex="1" parent="1">
          <mxGeometry x="442" y="224" width="120" height="30" as="geometry" />
        </mxCell>
        <mxCell id="9dE8ySC3UoFa6OLy-C59-12" value="" style="shape=image;html=1;verticalAlign=top;verticalLabelPosition=bottom;labelBackgroundColor=#ffffff;imageAspect=0;aspect=fixed;image=https://icons.diagrams.net/icon-cache1/Unicons_Line_vol_1-2963/brain-1038.svg;shadow=1;" vertex="1" parent="1">
          <mxGeometry x="672" y="302" width="80" height="80" as="geometry" />
        </mxCell>
        <mxCell id="9dE8ySC3UoFa6OLy-C59-13" value="Wav2Lip ML Engine&lt;div&gt;(Google Colab)&lt;/div&gt;" style="text;strokeColor=light-dark(#001DBC,#92BAFF);align=center;fillColor=#0050ef;html=1;verticalAlign=middle;whiteSpace=wrap;rounded=1;fontColor=#ffffff;shadow=1;" vertex="1" parent="1">
          <mxGeometry x="637" y="394" width="150" height="40" as="geometry" />
        </mxCell>
        <mxCell id="9dE8ySC3UoFa6OLy-C59-16" value="" style="endArrow=classic;html=1;rounded=0;entryX=0;entryY=0.5;entryDx=0;entryDy=0;exitX=1;exitY=0.5;exitDx=0;exitDy=0;exitPerimeter=0;shadow=1;" edge="1" parent="1" source="9dE8ySC3UoFa6OLy-C59-8" target="9dE8ySC3UoFa6OLy-C59-12">
          <mxGeometry width="50" height="50" relative="1" as="geometry">
            <mxPoint x="442" y="404" as="sourcePoint" />
            <mxPoint x="492" y="354" as="targetPoint" />
          </mxGeometry>
        </mxCell>
        <mxCell id="9dE8ySC3UoFa6OLy-C59-17" value="Send Audio / Video to ML" style="text;strokeColor=none;align=center;fillColor=none;html=1;verticalAlign=middle;whiteSpace=wrap;rounded=0;shadow=1;" vertex="1" parent="1">
          <mxGeometry x="490" y="304" width="186" height="40" as="geometry" />
        </mxCell>
        <mxCell id="9dE8ySC3UoFa6OLy-C59-19" value="" style="endArrow=classic;html=1;rounded=0;exitX=0;exitY=0.65;exitDx=0;exitDy=0;exitPerimeter=0;shadow=1;" edge="1" parent="1" source="9dE8ySC3UoFa6OLy-C59-12">
          <mxGeometry width="50" height="50" relative="1" as="geometry">
            <mxPoint x="442" y="404" as="sourcePoint" />
            <mxPoint x="492" y="354" as="targetPoint" />
          </mxGeometry>
        </mxCell>
        <mxCell id="9dE8ySC3UoFa6OLy-C59-20" value="Returns DeepFake Video" style="text;strokeColor=none;align=center;fillColor=none;html=1;verticalAlign=middle;whiteSpace=wrap;rounded=0;shadow=1;" vertex="1" parent="1">
          <mxGeometry x="506" y="354" width="160" height="30" as="geometry" />
        </mxCell>
        <mxCell id="9dE8ySC3UoFa6OLy-C59-25" value="" style="html=1;verticalLabelPosition=bottom;align=center;labelBackgroundColor=#ffffff;verticalAlign=top;strokeWidth=2;strokeColor=#0080F0;shadow=1;dashed=0;shape=mxgraph.ios7.icons.storage;" vertex="1" parent="1">
          <mxGeometry x="110" y="333.5" width="96" height="60.5" as="geometry" />
        </mxCell>
        <mxCell id="9dE8ySC3UoFa6OLy-C59-26" value="Temporary Storage (Google Drive )" style="text;strokeColor=#10739e;align=center;fillColor=#b1ddf0;html=1;verticalAlign=middle;whiteSpace=wrap;rounded=1;shadow=1;" vertex="1" parent="1">
          <mxGeometry x="96" y="404" width="124" height="40" as="geometry" />
        </mxCell>
        <mxCell id="9dE8ySC3UoFa6OLy-C59-27" value="" style="endArrow=classic;html=1;rounded=0;exitX=0;exitY=0.867;exitDx=0;exitDy=0;exitPerimeter=0;entryX=0.971;entryY=0.643;entryDx=0;entryDy=0;entryPerimeter=0;shadow=1;" edge="1" parent="1" source="9dE8ySC3UoFa6OLy-C59-8" target="9dE8ySC3UoFa6OLy-C59-25">
          <mxGeometry width="50" height="50" relative="1" as="geometry">
            <mxPoint x="412.00199999999995" y="353.99800000000005" as="sourcePoint" />
            <mxPoint x="215.98" y="351.22" as="targetPoint" />
          </mxGeometry>
        </mxCell>
        <mxCell id="9dE8ySC3UoFa6OLy-C59-28" value="Save result.mp4" style="text;strokeColor=none;align=center;fillColor=none;html=1;verticalAlign=middle;whiteSpace=wrap;rounded=0;shadow=1;" vertex="1" parent="1">
          <mxGeometry x="242" y="342" width="140" height="40" as="geometry" />
        </mxCell>
        <mxCell id="9dE8ySC3UoFa6OLy-C59-29" value="" style="endArrow=classic;html=1;rounded=0;entryX=0.429;entryY=1.01;entryDx=0;entryDy=0;entryPerimeter=0;exitX=0.338;exitY=0.021;exitDx=0;exitDy=0;exitPerimeter=0;shadow=1;" edge="1" parent="1" source="9dE8ySC3UoFa6OLy-C59-25" target="9dE8ySC3UoFa6OLy-C59-3">
          <mxGeometry width="50" height="50" relative="1" as="geometry">
            <mxPoint x="142" y="324" as="sourcePoint" />
            <mxPoint x="492" y="354" as="targetPoint" />
          </mxGeometry>
        </mxCell>
        <mxCell id="9dE8ySC3UoFa6OLy-C59-30" value="User downloads result" style="text;strokeColor=none;align=center;fillColor=none;html=1;verticalAlign=middle;whiteSpace=wrap;rounded=0;shadow=1;" vertex="1" parent="1">
          <mxGeometry x="132" y="272" width="180" height="30" as="geometry" />
        </mxCell>
        <mxCell id="9dE8ySC3UoFa6OLy-C59-31" value="System Design for D-FEX" style="text;align=center;fillColor=none;html=1;verticalAlign=middle;whiteSpace=wrap;rounded=0;fillStyle=auto;labelBorderColor=none;labelBackgroundColor=none;textShadow=0;fontSize=30;fontStyle=1;convertToSvg=1;" vertex="1" parent="1">
          <mxGeometry x="182" width="484" height="50" as="geometry" />
        </mxCell>
      </root>
    </mxGraphModel>
  </diagram>
</mxfile>
